<svg xmlns="http://www.w3.org/2000/svg" xmlns:xlink="http://www.w3.org/1999/xlink" width="1000" zoomAndPan="magnify" viewBox="0 0 375 374.999991" height="500" preserveAspectRatio="xMidYMid meet" version="1.0"><defs><clipPath id="4c30629884"><path d="M 73.214844 101.890625 L 301.964844 101.890625 L 301.964844 272.890625 L 73.214844 272.890625 Z M 73.214844 101.890625 " clip-rule="nonzero"/></clipPath></defs><g clip-path="url(#4c30629884)"><path fill="#5c83bf" d="M 172.984375 103.167969 C 181.914062 104.929688 192.574219 108.679688 207.054688 115.363281 C 231.644531 126.714844 252.402344 114.351562 258.976562 108.144531 C 262.535156 104.789062 268.140625 104.949219 271.496094 108.507812 C 274.855469 112.066406 274.695312 117.671875 271.136719 121.03125 C 261.609375 130.023438 233.261719 146.972656 199.628906 131.449219 C 185.730469 125.03125 176.519531 121.925781 169.558594 120.554688 C 165.453125 119.742188 162.023438 119.515625 158.714844 119.640625 L 158.714844 119.972656 C 156.519531 119.972656 154.351562 120.078125 152.210938 120.28125 C 150.324219 120.558594 148.480469 120.878906 146.417969 121.234375 C 145.3125 121.429688 144.140625 121.632812 142.863281 121.84375 C 113.21875 128.980469 91.179688 155.703125 91.179688 187.574219 C 91.179688 224.914062 121.421875 255.171875 158.714844 255.171875 C 178.472656 255.171875 196.242188 246.691406 208.605469 233.136719 C 211.902344 229.519531 217.503906 229.265625 221.121094 232.5625 C 224.734375 235.859375 224.992188 241.460938 221.695312 245.078125 C 206.117188 262.15625 183.664062 272.890625 158.714844 272.890625 C 111.625 272.890625 73.464844 234.6875 73.464844 187.574219 C 73.464844 143.371094 107.046875 107.023438 150.085938 102.6875 C 156.945312 101.714844 163.898438 101.378906 172.984375 103.167969 Z M 174.222656 161.292969 C 168.105469 158.25 161.125 157.421875 154.464844 158.949219 C 147.808594 160.476562 141.886719 164.265625 137.707031 169.671875 C 133.53125 175.074219 131.355469 181.761719 131.554688 188.589844 C 131.753906 195.417969 134.3125 201.96875 138.796875 207.121094 C 143.28125 212.273438 149.414062 215.710938 156.152344 216.847656 C 162.886719 217.988281 169.808594 216.753906 175.734375 213.359375 C 178.976562 211.503906 181.8125 209.0625 184.113281 206.1875 L 184.132812 206.203125 C 184.539062 205.632812 185.023438 205.101562 185.578125 204.625 C 197.964844 193.976562 211.910156 192.164062 223.925781 194.75 C 235.5625 197.253906 245.589844 203.882812 251.480469 210.664062 C 256.476562 216.414062 261.996094 216.972656 267.433594 215.46875 C 273.628906 213.757812 278.445312 209.585938 279.554688 207.960938 C 282.308594 203.917969 287.820312 202.875 291.859375 205.632812 C 295.902344 208.386719 296.945312 213.898438 294.1875 217.941406 C 290.472656 223.394531 281.945312 229.839844 272.152344 232.546875 C 261.601562 235.460938 248.496094 234.242188 238.109375 222.285156 C 234.621094 218.273438 227.929688 213.734375 220.199219 212.070312 C 213.015625 210.523438 205.132812 211.457031 197.664062 217.609375 C 194.03125 222.058594 189.59375 225.839844 184.539062 228.734375 C 175.050781 234.167969 163.980469 236.140625 153.203125 234.320312 C 142.425781 232.5 132.613281 227 125.4375 218.753906 C 118.261719 210.511719 114.164062 200.03125 113.847656 189.105469 C 113.527344 178.179688 117.007812 167.480469 123.695312 158.832031 C 130.378906 150.183594 139.855469 144.125 150.507812 141.679688 C 161.160156 139.234375 172.328125 140.5625 182.113281 145.433594 C 190.171875 149.445312 196.878906 155.65625 201.496094 163.292969 C 204.027344 167.480469 202.683594 172.925781 198.496094 175.457031 C 194.3125 177.988281 188.863281 176.644531 186.335938 172.457031 C 183.449219 167.683594 179.257812 163.800781 174.222656 161.292969 Z M 298.527344 143.988281 C 302.289062 147.117188 302.796875 152.703125 299.667969 156.464844 C 291.421875 166.371094 264.3125 187.859375 228.917969 176.429688 C 224.261719 174.925781 221.707031 169.929688 223.210938 165.273438 C 224.714844 160.621094 229.707031 158.0625 234.359375 159.566406 C 259.988281 167.84375 280.132812 152.242188 286.054688 145.128906 C 289.183594 141.367188 294.769531 140.859375 298.527344 143.988281 Z M 298.527344 143.988281 " fill-opacity="1" fill-rule="evenodd"/></g></svg>